<svg xmlns="http://www.w3.org/2000/svg" viewBox="0 0 81 82" width="81" height="82">
<g fill="none" stroke="#000" stroke-width="10">
  <path d="M 21 12 L 20 13 L 19 13 L 18 14 L 17 14 L 14 17 L 14 18 L 13 19 L 13 21 L 12 22 L 12 28 L 13 29 L 13 32 L 14 33 L 14 34 L 15 35 L 15 37 L 16 38 L 16 39 L 17 40 L 17 41 L 16 42 L 16 43 L 15 44 L 15 46 L 14 47 L 14 48 L 13 49 L 13 53 L 12 54 L 12 59 L 13 60 L 13 62 L 14 63 L 14 64 L 17 67 L 18 67 L 19 68 L 21 68 L 22 69 L 28 69 L 29 68 L 32 68 L 33 67 L 34 67 L 35 66 L 37 66 L 38 65 L 39 65 L 40 64 L 41 64 L 42 65 L 43 65 L 44 66 L 46 66 L 47 67 L 48 67 L 49 68 L 52 68 L 53 69 L 59 69 L 60 68 L 62 68 L 63 67 L 64 67 L 67 64 L 67 63 L 68 62 L 68 60 L 69 59 L 69 53 L 68 52 L 68 49 L 67 48 L 67 47 L 66 46 L 66 44 L 65 43 L 65 42 L 64 41 L 64 40 L 65 39 L 65 38 L 66 37 L 66 35 L 67 34 L 67 33 L 68 32 L 68 29 L 69 28 L 69 22 L 68 21 L 68 19 L 67 18 L 67 17 L 64 14 L 63 14 L 62 13 L 61 13 L 60 12 L 54 12 L 53 13 L 49 13 L 48 14 L 47 14 L 46 15 L 44 15 L 43 16 L 42 16 L 41 17 L 40 17 L 39 16 L 38 16 L 37 15 L 35 15 L 34 14 L 33 14 L 32 13 L 28 13 L 27 12 Z" />
</g>
</svg>